<svg width="1086" height="483" viewBox="0 0 1086 483" fill="none" xmlns="http://www.w3.org/2000/svg"><g clip-path="url(#clip0_2842_10422)"><g clip-path="url(#clip1_2842_10422)"><path fill-rule="evenodd" clip-rule="evenodd" d="M239.492 223.589h52.341c7.659 0 14.553 1.025 20.425 3.33 5.873 2.306 10.724 5.124 14.554 8.967 3.063 3.074 5.361 6.405 6.893 10.504 1.788 4.099 2.554 8.198 2.554 12.81v.256c0 5.124-1.022 9.992-2.809 14.091-1.787 4.099-4.34 7.686-7.66 10.76-3.319 3.074-7.149 5.38-11.489 7.173-4.341 1.794-9.192 3.075-14.553 3.843l41.106 53.545h-11.489l-39.83-51.751h-40.852v51.751h-9.191V223.589zm51.319 64.817c5.107 0 9.958-.769 14.554-2.05 4.34-1.281 8.17-3.33 11.489-5.636 3.319-2.562 5.617-5.38 7.66-8.967a26.955 26.955 0 002.808-12.041v-.256c0-8.454-3.064-15.115-9.447-19.983-6.127-4.868-15.064-7.43-26.553-7.43h-42.639v56.619h42.128v-.256zm123.576 62.511c-8.936 0-17.107-1.793-24.766-5.124-7.66-3.33-14.298-7.942-19.66-13.578-5.617-5.893-9.958-12.554-13.021-20.496-3.064-7.942-4.596-16.396-4.596-25.107v-.256c0-8.71 1.532-17.165 4.851-25.107 3.064-7.942 7.404-14.859 13.021-20.752 5.617-5.892 12-10.504 19.66-13.834 7.66-3.331 15.83-5.124 25.022-5.124 5.617 0 10.723.512 15.063 1.537 4.596 1.025 8.681 2.306 12.511 4.099 3.83 1.794 7.405 3.843 10.979 6.405 3.319 2.562 6.638 5.124 9.958 8.198l-6.639 6.918c-2.808-2.562-5.617-5.124-8.681-7.43-3.064-2.306-6.127-4.099-9.447-5.892-3.319-1.538-7.149-2.819-10.978-3.843-4.086-1.025-8.171-1.538-13.022-1.538-7.404 0-14.553 1.538-20.936 4.356-6.383 2.818-12 6.917-16.596 11.785-4.596 5.124-8.426 11.016-10.979 17.677-2.553 6.917-4.085 14.091-4.085 22.033v.256c0 7.942 1.277 15.115 4.085 22.033 2.809 6.917 6.383 12.809 11.234 17.933 4.596 5.124 10.213 8.967 16.596 12.041 6.383 2.818 13.277 4.356 20.937 4.356 8.936 0 16.851-1.794 23.489-5.124 6.638-3.331 13.021-8.198 19.405-14.603l6.127 6.148c-3.319 3.331-6.638 6.149-10.213 8.967-3.574 2.562-7.149 4.868-11.234 6.917-4.085 1.794-8.17 3.331-13.021 4.356-4.596 1.281-9.702 1.793-15.064 1.793zm181.533-22.289l-17.361-17.677c-4.852 4.611-9.703 8.198-14.809 10.76-4.851 2.562-10.979 3.843-18.128 3.843-5.362 0-10.213-1.025-14.809-3.074-4.34-2.05-8.17-4.868-11.489-8.455-3.064-3.587-5.617-7.686-7.404-12.553-1.788-4.868-2.554-9.736-2.554-15.116v-.256c0-5.38.766-10.504 2.554-15.115 1.787-4.612 4.34-8.967 7.404-12.554 3.319-3.587 7.149-6.405 11.489-8.454 4.341-2.05 9.192-3.075 14.554-3.075 6.383 0 12 1.281 17.106 3.843 5.107 2.562 9.958 5.893 14.809 10.248l17.362-20.239c-2.809-2.818-5.873-5.38-9.192-7.942a64.298 64.298 0 00-10.979-6.149c-3.829-1.793-8.17-3.074-13.021-3.843-4.851-1.025-10.213-1.537-15.83-1.537-9.702 0-18.383 1.793-26.298 5.124-7.915 3.33-14.809 7.942-20.426 13.834-5.617 5.893-10.213 12.81-13.277 20.496-3.319 7.686-4.851 16.14-4.851 25.107v.256c0 8.967 1.532 17.421 4.851 25.107 3.32 7.942 7.66 14.603 13.277 20.496 5.617 5.892 12.511 10.247 20.426 13.578 7.915 3.33 16.341 5.124 25.532 5.124 6.128 0 11.49-.513 16.341-1.537a69.816 69.816 0 0013.532-4.356c4.085-2.049 7.915-4.355 11.234-7.173 3.319-2.306 6.894-5.38 9.957-8.711zm81.959-35.354h-40.852c1.022-6.149 3.319-11.273 6.894-14.86 3.574-3.586 8.17-5.636 13.787-5.636 5.617 0 10.213 1.793 13.788 5.636 3.319 3.843 5.361 8.711 6.383 14.86zm26.298 10.247v-.256c0-6.917-1.021-13.322-2.809-19.471-1.787-6.148-4.595-11.784-8.681-16.652-3.829-4.868-8.681-8.711-14.553-11.529-5.872-2.818-12.766-4.355-20.681-4.355-6.894 0-13.277 1.281-19.149 3.843-5.873 2.562-10.724 6.148-14.809 10.76-4.085 4.611-7.404 9.735-9.702 15.884-2.298 6.149-3.574 12.553-3.574 19.214v.257c0 7.429 1.276 14.09 3.829 20.239 2.554 6.149 5.873 11.273 10.469 15.628 4.34 4.355 9.702 7.686 15.829 10.248 6.128 2.305 12.767 3.586 19.916 3.586 8.681 0 16.34-1.537 22.723-4.867 6.383-3.075 12-7.43 16.341-13.066l-15.575-13.835c-3.83 3.587-7.404 5.893-10.979 7.43-3.574 1.537-7.659 2.306-12 2.306-6.128 0-11.234-1.538-15.319-4.868-4.085-3.074-6.894-7.942-8.17-14.091h66.383c0-1.281.256-2.562.256-3.33.255-.769.255-1.794.255-3.075z" fill="#fff"/><path d="M752.688 218.209h-27.064v130.659h27.064V218.209z" fill="#fff"/><path fill-rule="evenodd" clip-rule="evenodd" d="M831.838 344.769v-21.777c-4.085 2.306-8.681 3.331-13.277 3.331-5.872 0-8.681-3.075-8.681-9.223v-40.991h22.468v-23.314H809.88V228.2h-27.064v24.595h-11.745v23.314h11.49v45.346c0 5.636.765 10.248 2.042 13.835 1.277 3.586 3.319 6.661 5.617 8.966 2.553 2.306 5.362 3.843 8.681 4.612a50.204 50.204 0 0011.234 1.281c4.596 0 8.426-.513 12-1.537 3.575-.769 6.894-2.05 9.703-3.843zm76.851-29.719c0 5.124-2.042 8.967-5.872 12.041s-8.936 4.612-15.319 4.612c-4.341 0-7.915-1.025-10.724-3.075-2.808-2.049-4.085-4.867-4.085-8.71v-.256c0-4.356 1.787-7.686 5.106-9.736 3.32-2.306 7.915-3.33 13.788-3.33 3.319 0 6.383.256 9.447 1.024 2.808.769 5.617 1.538 7.915 2.562v4.868h-.256zm25.532 33.818v-55.851c0-13.066-3.319-23.057-10.212-30.487-6.894-7.173-17.618-11.016-32.426-11.016-8.17 0-15.064.768-20.681 2.049-5.617 1.538-11.234 3.331-16.341 5.637l6.894 20.751c4.34-1.793 8.681-3.074 12.511-3.842a74.264 74.264 0 0113.787-1.281c6.894 0 12 1.537 15.319 4.355 3.319 3.074 5.107 7.429 5.107 13.066v1.537c-3.575-1.281-6.894-2.05-10.724-2.818-3.574-.769-7.915-1.025-12.766-1.025-5.617 0-10.979.512-15.575 1.793-4.595 1.281-8.68 3.075-12 5.637-3.319 2.562-6.127 5.636-7.915 9.479-1.787 3.843-2.808 8.454-2.808 13.578v.256c0 4.868.766 8.967 2.553 12.554 1.787 3.587 4.085 6.661 7.149 9.223 3.064 2.562 6.383 4.355 10.468 5.636 4.085 1.281 8.171 1.793 12.766 1.793 6.639 0 12.256-1.024 16.852-3.33 4.595-2.306 8.68-5.124 12-8.967v10.248h26.042v1.025z" fill="#fff"/><path d="M110.299 128.541h-8.681c0-15.372-.511-34.587-3.575-35.868-3.574-1.537-7.404.513-4.85 5.893 3.063 5.892 1.276 9.991-4.596 10.504-4.851.512-11.235-.513-14.554-11.785-3.83-13.322 5.107-16.653 19.915-30.487C106.724 55.013 110.3 49.633 110.3 49.633s3.574 5.38 16.596 17.421c14.808 13.578 23.745 16.909 19.915 30.487-3.319 11.273-9.702 12.041-14.553 11.785-5.873-.512-7.405-4.611-4.596-10.504 2.808-5.38-1.022-7.43-4.851-5.892-3.064 1.28-3.575 20.495-3.575 35.867H110.3v-.256zm0 303.845l-28.34-163.451c10.467-2.818 18.127-12.041 18.638-23.058h19.404c.511 11.017 8.17 20.496 18.639 23.058l-28.341 163.451zM12 176.449c-2.042-1.794-3.32-4.099-4.851-5.636-2.043-2.05-4.34-3.587-7.149-3.587 2.809 0 5.106-1.537 6.894-3.587 1.532-1.537 2.808-4.099 4.85-5.636 1.277-1.025 3.065-1.794 4.852-1.794 3.064 0 5.617 1.794 6.894 4.612 1.532 0 6.127 0 8.936-.256 3.319-.256 5.617-.256 1.787-3.075l-1.787-1.281c-2.553-1.537-4.596-3.842-5.617-6.661-.256-.256-.256-.768-.51-1.281-.256-.512-.256-1.024-.511-1.793-.256-.769-.256-1.793-.256-2.818 0-7.686 5.873-13.835 13.532-14.347h2.809c.255 0 .766.256 1.021.256 1.532.256 2.809 1.025 4.34 1.794l.511.256c7.15 4.611 10.468 13.322 10.468 13.322s-1.787-1.025-9.191-2.306c-5.617-.768-8.936 1.794-8.17 6.917 1.276 7.942 12 9.992 12 9.992H71.49v15.115H52.852s-10.724 2.05-12 9.992c-.766 5.38 2.553 7.942 8.17 6.661 7.404-1.537 9.191-2.306 9.191-2.306s-3.319 8.967-10.468 13.322l-.51.257a12.036 12.036 0 01-4.341 1.793c-.255 0-.766.256-1.021.256-1.022.256-2.043.256-2.809 0-7.66-.256-13.532-6.661-13.532-14.091 0-1.024 0-1.793.256-2.818 0-.512.255-1.281.51-1.793s.255-.769.51-1.281c1.277-2.818 3.065-5.124 5.618-6.661l1.787-1.281c3.83-2.818 1.277-2.818-1.787-3.074-2.553-.257-7.405-.257-8.936-.257-1.022 2.819-3.83 4.612-6.894 4.612-1.787.256-3.32-.512-4.596-1.537zm195.832 0c2.042-1.794 3.319-4.099 4.851-5.636 1.787-2.05 4.085-3.587 6.893-3.587-2.808 0-5.106-1.537-6.893-3.587-1.532-1.537-2.809-4.099-4.851-5.636-1.277-1.025-3.064-1.794-4.851-1.794-3.064 0-5.617 1.794-6.894 4.612-1.532 0-6.383 0-8.936-.256-3.32-.256-5.617-.256-1.788-3.075l1.788-1.281c2.553-1.537 4.595-3.842 5.617-6.661.255-.256.255-.768.51-1.281.256-.512.256-1.024.511-1.793.255-1.025.255-1.793.255-2.818 0-7.686-5.872-13.835-13.532-14.347h-2.808c-.256 0-.766.256-1.022.256-1.531.256-2.808 1.025-4.34 1.794l-.511.256c-7.149 4.611-10.468 13.322-10.468 13.322s1.787-1.025 9.192-2.306c5.617-.768 8.936 1.794 8.17 6.917-1.277 7.942-12 9.992-12 9.992h-18.639v15.115h18.639s10.723 2.05 12 9.992c.766 5.38-2.553 7.942-8.17 6.661-7.405-1.537-9.192-2.306-9.192-2.306s3.319 8.967 10.468 13.322l.511.257a12.04 12.04 0 004.34 1.793c.256 0 .766.256 1.022.256 1.021.256 2.042.256 2.808 0 7.405-.512 13.532-6.661 13.532-14.347 0-1.025 0-1.793-.255-2.818 0-.512-.255-1.281-.511-1.793-.255-.513-.255-.769-.51-1.281-1.277-2.818-3.064-5.124-5.617-6.661l-1.788-1.281c-3.829-2.818-1.276-2.818 1.788-3.075 2.553-.256 7.404-.256 8.936-.256 1.021 2.818 3.83 4.612 6.894 4.612 1.787.512 3.319-.256 4.851-1.281z" fill="#D50032"/><path d="M137.363 236.398c-7.404 8.967-16.596 14.603-26.298 19.727l-1.277.769-1.276-.513c-9.703-5.124-19.15-11.016-26.554-19.727-17.617-21.264-26.553-52.519-26.298-80.188h108.001c.766 27.156-8.936 59.18-26.298 79.932z" fill="#fff"/><path d="M161.108 149.805c2.298 28.181-7.404 63.023-25.532 85.056-7.149 8.455-16.086 14.091-25.532 19.215-9.447-5.124-18.639-10.76-25.788-19.215-18.383-22.289-27.32-56.363-25.532-85.056h102.384z" fill="#6CACE4"/><path d="M138.129 141.863c-14.809-5.893-16.851-7.174-28.085-7.174-13.532 0-14.81 1.281-28.086 7.174-1.276-.769-3.064-2.306-4.085-3.587 0-1.025.255-2.306 1.021-3.587 2.043-4.099 7.405-7.686 11.49-7.942 4.85-3.843 12.766-5.892 18.383-4.868.511 0 1.021.257 1.277.257.51 0 .766-.257 1.276-.257 5.617-1.024 13.532 1.025 18.383 4.868 4.341.256 9.447 3.843 11.49 7.942.766 1.281 1.021 2.562 1.021 3.587-1.021 1.281-2.808 2.818-4.085 3.587z" fill="#C09A4E"/><path d="M110.044 112.144c14.298-6.405 21.447-1.281 22.723 6.149 17.617-4.356 16.085 22.032 5.362 26.131l-1.532 3.075c-8.936-1.794-15.319-2.562-26.553-2.562-8.171 0-20.17.512-27.32 1.537l-.766-2.05c-10.979-3.843-12.51-30.487 5.107-26.131 1.532-7.43 8.425-12.554 22.979-6.149zM82.98 137.763c7.148.257 6.638-4.611 5.872-8.454-.51-2.818-2.043-3.843-2.043-8.198-4.596-3.843-9.702 3.33-10.212 8.198-.511 8.454 5.872 8.454 6.383 8.454zm24.766-24.082c-23.745-10.504-18.894 24.082-2.043 15.884 1.021-.512 1.021-1.537.766-2.562-.766-3.843-.255-9.223 1.277-13.322zm4.34 0c1.532 3.843 2.043 9.223 1.277 13.322-.256 1.025-.256 2.05.766 2.562 16.851 8.455 21.702-26.388-2.043-15.884zm24.766 24.082c.511 0 7.149 0 6.383-8.71-.51-4.868-5.617-11.785-10.212-8.198 0 4.355-1.532 5.38-2.043 8.198-.766 4.099-1.277 8.967 5.872 8.71z" fill="#C09A4E"/><path d="M138.64 145.45l-4.086 6.661.256.256v.256c0 .256 0 .256-.256.512 0 .257-.255.257-.51.257h-.256c-.255 0-.51 0-.51-.257-1.277-.768-2.809-1.281-4.085-1.793-2.043-.769-3.83-1.281-5.362-1.793-2.043-.513-3.83-1.025-5.617-1.281-2.043-.257-3.83-.513-5.362-.513h-5.617c-1.532 0-3.575.256-5.362.513-1.787.256-3.574.512-5.617 1.281-1.787.512-3.574 1.024-5.362 1.793-1.276.512-2.808 1.025-4.085 1.793-.255.257-.51.257-.51.257-.256 0-.256 0-.511-.257-.255-.256-.255-.768 0-1.024l-4.085-6.661c15.064-10.504 41.617-10.504 56.937 0zm-30.894-43.041v-.256h4.34l-.766 2.562 2.043-.769v4.355l-2.043-.768.766 3.33h-4.34l.766-3.33-2.043.768v-4.355l2.043.769-.766-2.306z" fill="#C09A4E"/><path d="M117.959 131.871c-.256-.256-.511-.769-.511-1.281 0-.512.255-1.025.511-1.281l.51-.512c.256 0 .256-.256.511-.256h1.021c.256 0 .256 0 .511.256s.511.256.511.512c.255.256.51.769.51 1.281v.512c0 .513-.255.769-.51 1.281l-.511.513c-.255 0-.255.256-.511.256h-.255c.255 2.562 3.83 4.868 6.638 3.331.511-.257 1.277-.769 1.788-1.281-.256-.257-.256-.513-.511-.769h-.511l-.255-.256c-.255 0-.511.256-.511.256h-.255c-.255 0-.255.256-.511.256-.255 0-.255.256-.51.256 0 0-.256 0-.256.257 0 0-.255.256-.51.256 0 0-.256 0-.256.256h-.255c-.511 0-.766-.512-.511-1.025.256-.256.256-.512.511-.768l.255-.257v-.256c0-.256 0-.256-.255-.512-.255-.769 0-1.281.255-1.537 0-.257.256-.257.256-.513.255-.256.255-.256.255-.512.255-.256.511-.256.511-.512.255 0 .255-.257.255-.257 0-.768.255-1.024.255-1.281h.766c.256 0 .511.513.511 1.025v.256c0 .513 0 .769.255 1.281 0 .256.256.256.256.513.255.256.255.512.51.768.256-.512.766-.768 1.277-.768v.256c-.511-.513-.766-.769-1.021-1.281-.256-.512-.256-.512-.511-1.281 0 0-.255-.512-.511-.769 0-.256 0-.512.256-.768.255 0 .51-.256 1.021.256l.51.512c.256.257.511 0 .766 0 .256 0 .511-.256.766-.256h.511s.511 0 .766.513c.255.256.255.512.255.768s.256.513.511.513h.766c.511.256 1.021.256 1.021.512s-.255.512-.51.768h-.766c-.511 0-.766.257-1.277.513-.511.256-1.021.512-1.532.512h-.255c.51.256.766.769.766 1.281.51 0 .766-.256 1.276-.512.511-.256.766-.769 1.277-1.025.255 0 .511-.256.766-.256.511 0 .766.512.511 1.025l-.511.512c-.255.256 0 .769 0 1.025.255 1.025-.255 1.537-.511 1.793-.51.769-1.276.769-1.021 1.281.255 1.025-.255 1.537-.511 1.537-.255 0-1.021 0-1.021-1.281 0-.512 0-1.281-.255-1.793-.256-.512-.511-.512-.511-1.281-.255.256-.511.256-1.021.256 0 3.331 2.808 4.868 5.362 4.355.766 0 1.276-.256 2.042-.768-.255-.256-.255-.512-.255-.769 0-.768.766-1.537 1.532-1.537s1.532.769 1.532 1.537c0 .769-.766 1.537-1.532 1.537h-.511c-.255 2.819 2.043 5.124 4.851 3.331-.255-.256-.255-.512-.255-.769-.511.257-1.787.513-2.043.513-.51 0-.51-.256-.51-.513 0-.256.255-.512.51-.512.256-.256 0-.769.256-1.281.255-.512.255-.512.766-.512.51-.257.51 0 .51-.257.256 0 .256-.512.256-.512l.255-.256h.511c.255.256.255.512.255.768v1.538c.255 0 .255-.257.51-.257h.256c0-.256.255-1.024.255-1.537v-.768c.255-.256.511 0 .766 0 .255.256.766 1.024 1.021 1.024h.766c.511.257 1.277 1.025 1.277 1.281 0 .513 0 .257-.255.513-.256.256-1.277 0-2.043 0-.255 0-.511.256-.766.256l-.766.769-.511.512h-.255c-.766.769-1.787 1.281-3.064 1.537h-.51c-.511 0-1.022-.256-1.788-.512-1.787-.769-1.276-3.331-1.276-3.843-.511.512-1.021.512-1.787.768-1.277.257-2.554.257-3.83-.256-2.043-.768-2.553-3.586-2.553-4.611 0 .256-.766 1.025-1.788 1.281-1.021.512-2.553 1.025-3.83.512-2.042-.512-2.808-2.049-3.829-3.33-.256.256-.256.512-.511.768-1.021.769-2.553 1.537-4.085 1.537-2.298-.256-3.83-2.305-4.085-3.074-.511.512-2.043 2.818-4.085 3.074-1.532.257-3.064-.768-4.086-1.537l-.51-.512c-1.022 1.281-1.532 2.818-3.83 3.33-1.277.513-2.809 0-3.83-.512s-1.787-1.025-1.787-1.281c0 .769-.51 3.587-2.553 4.611-1.277.513-2.809.513-3.83.257-.766-.257-1.277-.513-1.787-.769 0 .512.255 3.074-1.277 3.843-.766.512-1.277.769-1.787.769h-.51c-1.278 0-2.299-.769-3.065-1.538h-.255l-.51-.512c-.511-.256-.767-.512-.767-.512-.255-.257-.51-.257-.766-.257-.766-.256-1.787 0-2.042 0-.256-.256-.256 0-.256-.512s.766-1.281 1.277-1.281c.51-.256.255 0 .766 0 .51 0 .766-.769 1.021-1.025.256-.256.51-.256.766 0s0 0 0 .769c0 .512 0 1.281.256 1.537h.255c.255 0 .51 0 .51.256v-1.537c0-.256 0-.512.256-.769.255-.256.51 0 .51 0s.256 0 .256.257c0 .256.255.512.255.512.255.256.255 0 .51.256.511.256.511.256.767.513.255.512 0 1.024.255 1.281l.51.512c0 .256 0 .512-.51.512-.255 0-1.532-.512-2.043-.512 0 .256 0 .512-.255.769 2.809 1.793 5.107-.257 4.851-3.331h-.51c-.766 0-1.532-.769-1.532-1.537 0-.769.766-1.537 1.532-1.537s1.532.768 1.532 1.537c0 .256 0 .768-.256.768.51.257 1.277.513 2.043.769 2.553.512 5.362-1.025 5.362-4.355-.511 0-.766-.256-1.022-.513 0 .769-.255.769-.51 1.281-.256.513-.256 1.281-.256 1.794 0 1.281-.766 1.281-1.021 1.281-.255 0-.766-.513-.51-1.537 0-.513-.511-.513-1.022-1.281-.255-.257-.51-.769-.51-1.794 0-.256.255-.512 0-1.025l-.511-.512c-.255-.512 0-1.025.51-1.025.256 0 .766 0 .766.256.511.257.766.513 1.277 1.025.51.256.766.513 1.021.513 0-.513.256-1.025.766-1.281h-.255c-.766.256-1.277-.257-1.787-.513s-.51-.512-1.022-.512h-.766c-.255-.256-.51-.513-.255-.769 0-.256.51-.512 1.021-.512h.766c.511 0 .511-.512.511-.512 0-.257 0-.513.255-.769.256-.256.766-.512.766-.512h.511c.255 0 .51 0 .766.256.255 0 .51.256.766 0l.51-.513c.511-.256.767-.256 1.022-.256s.255.513.255.769-.51.512-.51.768c-.256.513-.256.769-.511 1.281-.255.513-.51.769-1.021 1.281l-.256.256c.51 0 1.022.257 1.277.769.255-.512.51-1.025.766-1.281.255-.512.255-1.025.255-1.537 0-1.281.766-1.281 1.021-1.025.256.256.511.256.511 1.281 0 .512.766.256 1.277 1.025.255.256.766.768.51 2.049 0 .257-.255.769 0 1.025.256.256.256.513.511.769.255.512-.255 1.025-.766 1.025-.255 0-.51-.257-.766-.513-.766-.512-.766-.512-1.277-.768l-1.02-.513c-.256 0-.256 0-.511-.256 0 .256-.256.512-.511.769.51.768 1.021 1.024 1.787 1.281 3.064 1.537 6.383-.769 6.638-3.331-1.02-.256-1.787-1.025-1.787-2.05 0-1.024.766-2.049 2.043-2.049 1.021 0 2.042 1.025 2.042 2.049 0 .769-.51 1.538-1.276 1.794.255.256.255.512.51.768.766 1.281 2.298 2.05 4.596 1.538 2.298-.257 3.064-2.306 3.319-3.075-.766-.256-1.276-.512-1.532-1.281 0 .256-.255.769-.51 1.025-.256.256-.766 1.025-.766 1.281-.255.512-.511.769-.511 1.025-.255.256-.51.256-.51.256-.256 0-.511-.512-.511-.769 0-.512 0-1.281-.255-1.281-.256-.512-1.022-.768-1.022-1.793 0-1.281.766-1.281.766-1.793 0-.256-.255-1.281-.255-1.537 0-.513.255-.769.511-.769.51 0 1.021.256 1.021.512.255.513.511.513.766.769.51.512.766.512 1.021 1.025.255.256.255.256.255.512.256-.768.766-1.281 1.532-1.537h-.255c-.766-.256-1.277-.512-1.532-1.025-.511-.512-.511-.768-1.021-.768-.511-.257-.511-.257-.766-.513s-.255-.512 0-.768c.255-.257.51-.513 1.276-.257.511 0 .511 0 .766.257.511.256.511 0 .766 0 .256-.257.511-.769.766-.769.511-.256.766-.256.766-.256s.256 0 .766.256c.511.256.511.769.766.769.256.256.256.256.766 0 .511-.257.511-.257.766-.257.511 0 1.021 0 1.277.257.255.256.255.512 0 .768-.256.256-.256.256-.766.513-.511.256-.511.512-1.021.768-.511.513-.766.769-1.532 1.025h-.256c.766.256 1.277.769 1.532 1.537 0-.256.256-.512.256-.512s0-.256.255-.256l.51-.513.256-.256s.255 0 .255-.256c.255-.256.511-.513.511-.769l.51-.512c.256 0 .256-.256.511-.256s.511.512.511.768c0 .513-.256 1.281-.256 1.537l.256.257c.255.256.51.512.51 1.281v.256c0 .512-.255 1.024-.51 1.281-.256.256-.511.256-.511.512 0 .512-.255 1.025-.255 1.281s-.256.512-.511.769h-.511s-.255 0-.255-.257c0 0-.255-.256-.255-.512s-.256-.256-.256-.512c0-.257-.255-.257-.255-.513-.255-.256-.51-.512-.51-.768-.256-.513-.511-.769-.511-1.281-.255.512-.766 1.024-1.532 1.281.255.768 1.021 2.818 3.319 3.074 2.043.256 3.575-.512 4.596-1.537.255-.256.255-.513.511-.769h-.256c-1.021 0-1.021-.256-1.276-.256z" fill="#fff"/><path d="M86.554 126.747c0-1.28 1.021-2.561 2.553-2.561 1.277 0 2.553 1.281 2.553 2.561 0 1.281-1.021 2.562-2.553 2.562s-2.553-1.281-2.553-2.562zm1.021-13.834c0-1.281 1.022-2.306 2.553-2.306a2.292 2.292 0 012.298 2.306c0 1.281-1.02 2.562-2.297 2.562-1.532 0-2.554-1.281-2.554-2.562z" fill="#fff"/><path d="M91.66 110.351c0-1.025.766-1.793 1.788-1.793 1.02 0 1.787.768 1.787 1.793s-.766 1.793-1.787 1.793c-1.022 0-1.788-.768-1.788-1.793zm3.575-1.025c0-1.025.766-1.793 1.787-1.793s1.787.768 1.787 1.793-.766 1.793-1.787 1.793-1.787-.768-1.787-1.793zm3.575-.256c0-.769.765-1.537 1.531-1.537.766 0 1.532.768 1.532 1.537 0 .768-.766 1.537-1.532 1.537s-1.532-.512-1.532-1.537zm3.063.256c0-.768.766-1.537 1.532-1.537s1.532.769 1.532 1.537c0 .769-.766 1.537-1.532 1.537-1.021 0-1.532-.512-1.532-1.537z" fill="#fff"/><path d="M104.682 110.095c0-.513.51-1.025 1.021-1.025.511 0 1.021.512 1.021 1.025 0 .512-.51 1.281-1.021 1.281-.511 0-1.021-.513-1.021-1.281zm2.042 1.024c0-.512.511-1.025 1.022-1.025.51 0 1.021.513 1.021 1.025 0 .513-.511 1.025-1.021 1.025-.511 0-1.022-.512-1.022-1.025z" fill="#fff"/><path d="M108.512 112.144c0-.768.766-1.537 1.532-1.537s1.531.769 1.531 1.537c0 .769-.51 1.537-1.531 1.537-.766-.256-1.532-.768-1.532-1.537z" fill="#fff"/><path d="M108.256 115.219c0-1.025.766-1.794 1.788-1.794 1.021 0 1.787.769 1.787 1.794 0 1.024-.766 1.793-1.787 1.793-1.022 0-1.788-.769-1.788-1.793zm-.255 3.843c0-1.281 1.021-2.05 2.043-2.05 1.276 0 2.042 1.025 2.042 2.05 0 1.28-1.021 2.049-2.042 2.049-1.277 0-2.043-.769-2.043-2.049zm-.766 4.867c0-1.537 1.277-2.818 2.809-2.818 1.531 0 2.808 1.281 2.808 2.818 0 1.537-1.277 2.818-2.808 2.818-1.532-.256-2.809-1.281-2.809-2.818zm-33.192 14.603a2.292 2.292 0 012.298-2.305 2.292 2.292 0 012.298 2.305 2.292 2.292 0 01-2.298 2.306 2.292 2.292 0 01-2.298-2.306z" fill="#fff"/><path d="M71.745 134.433c0-1.281 1.277-2.562 2.554-2.562 1.276 0 2.553 1.025 2.553 2.562 0 1.281-1.277 2.562-2.553 2.562-1.532 0-2.554-1.025-2.554-2.562z" fill="#fff"/><path d="M70.98 130.078a2.292 2.292 0 012.297-2.306 2.292 2.292 0 012.298 2.306 2.292 2.292 0 01-2.298 2.306c-1.276 0-2.298-1.281-2.298-2.306zm.765-4.612c0-1.281 1.022-2.049 2.043-2.049 1.276 0 2.043 1.024 2.043 2.049 0 1.281-1.022 2.05-2.043 2.05-1.021.256-2.043-.769-2.043-2.05z" fill="#fff"/><path d="M73.788 122.136c0-1.025.766-2.05 2.043-2.05 1.02 0 2.042.769 2.042 2.05 0 1.025-.766 2.049-2.043 2.049-1.276-.256-2.042-1.024-2.042-2.049z" fill="#fff"/><path d="M76.341 119.574c0-1.025.766-1.794 1.787-1.794 1.022 0 1.788.769 1.788 1.794 0 1.024-.766 1.793-1.788 1.793-1.02-.256-1.787-1.025-1.787-1.793z" fill="#fff"/><path d="M79.405 118.037c0-.769.766-1.537 1.532-1.537s1.532.768 1.532 1.537c0 .768-.766 1.537-1.532 1.537s-1.532-.769-1.532-1.537zm3.064-.513c0-.769.51-1.281 1.277-1.281.765 0 1.276.512 1.276 1.281 0 .768-.51 1.281-1.276 1.281s-1.277-.513-1.277-1.281zm45.958 9.223c0-1.28 1.021-2.561 2.553-2.561 1.277 0 2.553 1.281 2.553 2.561 0 1.281-1.021 2.562-2.553 2.562-1.277 0-2.553-1.281-2.553-2.562zm-1.022-13.834c0-1.281 1.022-2.306 2.554-2.306a2.292 2.292 0 012.297 2.306c0 1.281-1.021 2.562-2.297 2.562-1.277 0-2.554-1.281-2.554-2.562z" fill="#fff"/><path d="M124.597 110.351c0-1.025.766-1.793 1.787-1.793s1.787.768 1.787 1.793-.766 1.793-1.787 1.793c-.766 0-1.787-.768-1.787-1.793z" fill="#fff"/><path d="M121.278 109.326c0-1.025.766-1.793 1.787-1.793s1.787.768 1.787 1.793-.766 1.793-1.787 1.793-1.787-.768-1.787-1.793zm-3.064-.256c0-.769.766-1.537 1.532-1.537s1.532.768 1.532 1.537c0 .768-.766 1.537-1.532 1.537s-1.532-.512-1.532-1.537z" fill="#fff"/><path d="M115.405 109.326c0-.768.511-1.537 1.532-1.537.766 0 1.532.769 1.532 1.537 0 .769-.766 1.537-1.532 1.537-1.021 0-1.532-.512-1.532-1.537zm-2.298.769c0-.513.511-1.025 1.277-1.025.511 0 1.021.512 1.021 1.025 0 .512-.51 1.281-1.021 1.281-.766 0-1.277-.513-1.277-1.281z" fill="#fff"/><path d="M111.32 111.119c0-.512.511-1.025 1.022-1.025.51 0 1.021.513 1.021 1.025 0 .513-.511 1.025-1.021 1.025-.511 0-1.022-.512-1.022-1.025zm31.915 23.314c0-1.281 1.022-2.562 2.554-2.562 1.276 0 2.553 1.025 2.553 2.562 0 1.281-1.022 2.562-2.553 2.562-1.532 0-2.554-1.025-2.554-2.562z" fill="#fff"/><path d="M144.512 130.078a2.292 2.292 0 012.298-2.306 2.292 2.292 0 012.298 2.306 2.292 2.292 0 01-2.298 2.306c-1.277-.256-2.298-1.281-2.298-2.306zm-.511-4.612c0-1.025 1.022-2.049 2.043-2.049 1.277 0 2.043 1.024 2.043 2.049 0 1.281-1.022 2.05-2.043 2.05-1.021.256-2.043-.769-2.043-2.05z" fill="#fff"/><path d="M142.469 122.136c0-1.025.766-1.794 1.788-1.794 1.021 0 1.787.769 1.787 1.794 0 1.024-.766 1.793-1.787 1.793-.766 0-1.788-.769-1.788-1.793z" fill="#fff"/><path d="M140.172 119.574c0-1.025.765-1.794 1.787-1.794 1.021 0 1.787.769 1.787 1.794 0 1.024-.766 1.793-1.787 1.793-1.022-.256-1.787-1.025-1.787-1.793z" fill="#fff"/><path d="M137.618 118.037c0-.769.511-1.537 1.532-1.537.766 0 1.532.768 1.532 1.537 0 .768-.766 1.537-1.532 1.537-1.021 0-1.532-.769-1.532-1.537zm-2.808-.513c0-.769.51-1.281 1.276-1.281s1.277.512 1.277 1.281c0 .768-.511 1.281-1.277 1.281-.51 0-1.276-.513-1.276-1.281zm-49.788-.512c0-1.281 1.277-2.562 2.553-2.562 1.277 0 2.553 1.025 2.553 2.562 0 1.281-1.02 2.562-2.553 2.562-1.276-.256-2.553-1.281-2.553-2.562z" fill="#fff"/><path d="M85.022 117.012c0-1.281 1.277-2.562 2.553-2.562 1.277 0 2.553 1.025 2.553 2.562 0 1.281-1.02 2.562-2.553 2.562-1.276-.256-2.553-1.281-2.553-2.562z" fill="#fff"/><path d="M84 122.136c0-1.537 1.277-2.818 2.81-2.818 1.531 0 2.808 1.281 2.808 2.818 0 1.537-1.277 2.818-2.809 2.818-1.532 0-2.808-1.281-2.808-2.818zm45.959-5.124c0-1.281 1.021-2.562 2.298-2.562 1.276 0 2.553 1.025 2.553 2.562 0 1.281-1.022 2.306-2.553 2.306-1.532 0-2.298-1.025-2.298-2.306zm.255 5.124c0-1.537 1.277-2.818 2.809-2.818 1.532 0 2.808 1.281 2.808 2.818 0 1.537-1.276 2.818-2.808 2.818-1.532 0-2.809-1.281-2.809-2.818zm-20.426 23.569l-5.872-3.586 5.872-3.587 5.873 3.587c-2.043 1.024-3.83 2.305-5.873 3.586z" fill="#fff"/><path d="M109.788 139.301c1.532.768 2.809 1.793 4.341 2.562l-4.341 2.562-4.085-2.562 4.085-2.562zm19.405 4.611l-8.937-3.074-1.531 4.611 9.191 3.074 1.277-4.611z" fill="#fff"/><path d="M128.427 144.425l-7.915-2.562-.766 2.818 7.66 2.818 1.021-3.074zm9.447 2.305v2.818l-2.554 1.281-2.297-3.843 4.851-.256z" fill="#fff"/><path d="M138.384 146.987h-5.106l2.553 3.843c.256.512-.255.768-.51.768l-2.554-5.124s.511 0 5.873-.512c0 0 0 1.025-.256 1.025zm-48-3.075l9.191-3.074 1.277 4.611-8.936 3.074-1.532-4.611z" fill="#fff"/><path d="M91.405 144.425l7.66-2.562 1.021 2.818-7.915 2.818-.766-3.074zm-9.192 2.305l.256 2.818 2.553 1.281 2.043-3.843-4.852-.256z" fill="#fff"/><path d="M81.958 146.987h5.107l-2.554 3.843c-.255.512.256.768.511.768l2.553-5.124s-.51 0-5.872-.512c-.255 0-.255 1.025.255 1.025zm59.49-8.455a2.291 2.291 0 012.298-2.305 2.292 2.292 0 012.298 2.305 2.293 2.293 0 01-2.298 2.306 2.292 2.292 0 01-2.298-2.306zm-65.107 29.462c2.298 28.95 13.532 52.264 36.511 70.454-2.042 2.049-3.83 3.843-4.851 4.611-24.51-19.983-38.298-50.214-38.554-81.726h77.618v6.661H76.341z" fill="#fff"/><path d="M147.321 175.936H86.299c4.085 26.388 12.766 41.248 32.936 56.107 1.277-1.537 3.064-3.075 4.341-4.356-18.383-13.065-26.298-27.668-29.107-45.09h52.852v-6.661z" fill="#fff"/></g><path fill-rule="evenodd" clip-rule="evenodd" d="M716.555 303.569c-13.56 1.697-29.164 11.102-44.15 26.61-18.375 19.017-31.253 44.47-34.872 68.929-.979 6.611-.975 19.072.006 24.247 2.73 14.404 12.51 25.386 26.765 30.054 3.596 1.178 4.588 1.298 10.722 1.298 6.164 0 7.11-.115 10.722-1.313 10.516-3.483 21.055-10.592 32.179-21.705 3.997-3.994 10.736-11.597 14.068-15.872l1.26-1.618.022 1.773c.037 3.045 1.414 8.058 2.822 10.279 2.736 4.313 7.806 6.526 12.339 5.384 4.168-1.049 8.792-6.416 15.098-17.524 1.338-2.356 2.828-4.768 3.312-5.361.855-1.048.887-1.051 1.171-.145 1.804 5.76 6.57 10.023 11.203 10.023 2.876 0 4.312-.834 7.403-4.298l2.611-2.928.002 2.909c.002 3.151 1.117 6.714 2.752 8.791 2.294 2.917 5.779 4.367 6.893 2.868.238-.32 1.555-3.309 2.926-6.643 6.315-15.35 14.581-28.918 25.238-41.426 4.32-5.071 6.519-6.972 7.784-6.733 1.902.361 1.139 2.424-3.423 9.259-7.28 10.908-10.053 17.573-10.174 24.449-.086 4.892.838 7.476 3.698 10.342 3.905 3.912 8.822 4.814 13.882 2.548 3.034-1.359 7.416-4.905 10.612-8.588 1.608-1.853 3.176-3.654 3.484-4.001.439-.495.467-.143.13 1.631-.237 1.245-.441 4.3-.453 6.79-.037 7.077 1.766 12.071 6.047 16.756 3.699 4.047 8.974 6.397 11.002 4.902.893-.659.882-.733-.582-3.639-1.871-3.713-2.428-6.67-2.428-12.876 0-9.697 2.455-21.064 8.171-37.821 1.891-5.541 3.949-11.439 4.575-13.105l1.138-3.03 8.393-.933c8.914-.99 9.907-1.344 10.875-3.876 1.094-2.861-1.441-3.81-10.193-3.813-3.397-.001-6.177-.058-6.177-.125s.518-1.755 1.152-3.75c3.622-11.413 3.4-20.439-.604-24.584-3.407-3.527-4.672-2.949-5.268 2.406-.239 2.148-.833 5.585-1.322 7.636-.878 3.69-4.311 14.17-5.781 17.652l-.76 1.801-2.217-.316a660.778 660.778 0 01-3.895-.568c-1.302-.195-1.748-.074-1.983.539-.469 1.222 1.03 3.864 3.24 5.712l2.002 1.674-.712 1.67c-.392.92-2.295 5.553-4.229 10.296-1.975 4.844-4.557 10.259-5.889 12.354-10.421 16.379-19.748 25.477-22.894 22.332-2.038-2.039.447-8.617 6.499-17.204 4.998-7.09 6.73-9.847 8.03-12.775 2.57-5.79 2.342-10.507-.676-14.034-2.264-2.645-4.701-3.703-8.556-3.716-7.397-.025-14.206 6.095-25.922 23.299-2.706 3.974-4.81 6.896-4.675 6.493 3.811-11.402 4.034-16.525.917-21.091-1.402-2.054-4.527-4.049-6.341-4.049-1.541 0-1.887.746-2.857 6.158-.884 4.931-3.975 14.114-5.93 17.617-.787 1.41-2.893 4.767-4.68 7.459-6.179 9.31-10.647 13.908-12.234 12.59-.387-.321-.712-.925-.722-1.342-.01-.418 1.387-3.506 3.103-6.864 3.674-7.189 4.209-9.911 2.575-13.113-1.163-2.28-3.532-3.858-5.79-3.858-1.998 0-2.882.946-6.387 6.834-7.598 12.764-18.796 28.276-21.601 29.923-1.23.722-1.351.719-1.92-.051-1.68-2.272 2.906-14.213 9.004-23.442 7.421-11.229 15.212-17.707 24.014-19.965 3.684-.944 3.989-1.315 2.842-3.452-1.304-2.43-5.309-4.765-8.174-4.765-3.244 0-9.065 1.629-13.351 3.735-8.17 4.014-15.588 10.894-21.791 20.21-4.546 6.824-11.806 15.492-19.259 22.99-13.441 13.521-26.721 22.494-38.58 26.067-3.492 1.052-5.135 1.271-9.79 1.309-5.063.04-5.815-.065-7.925-1.109-4.632-2.292-7.773-6.762-9.408-13.386-1.132-4.586-1.122-19.057.018-26.018 3.903-23.833 13.823-46.754 28.749-66.43 11.173-14.728 24.109-24.864 35.474-27.794 6.84-1.763 10.05-.728 11.354 3.661 2.296 7.732-1.501 19.91-11.126 35.691-4.294 7.04-4.516 7.897-2.305 8.904 1.782.812 4.999-.916 10.178-5.469 11.512-10.119 17.234-21.917 15.709-32.386-1.479-10.144-7.885-16.794-17.366-18.024-3.957-.514-4.109-.512-8.793.074zm241.675 23.319c-1.478.848-2.067 1.877-2.08 3.632-.024 3.282 3.591 6.52 7.283 6.525 1.581.002 2.155-.254 3.107-1.385 2.565-3.049 1.815-6.661-1.741-8.382-2.163-1.047-5.118-1.223-6.569-.39zm26.399 1.523c-3.807 3.562-6.59 9.855-6.582 14.886.005 3.128 1.254 6.403 3.419 8.968.681.806 1.238 1.747 1.238 2.091 0 .344-2.081 4.834-4.625 9.979-8.774 17.745-23.12 37.045-27.537 37.045-1.214 0-1.56-.263-2.126-1.617-.371-.889-.675-2.157-.675-2.817 0-3.009 1.772-9.116 5.137-17.706 4.463-11.392 5.554-15.159 5.875-20.283.21-3.348.109-4.213-.651-5.579-1.091-1.962-3.046-3.502-3.987-3.14-.38.145-1.618 2.219-2.751 4.609-2.343 4.941-12.309 21.855-17.392 29.517-6.822 10.284-14.033 17.779-19.964 20.752-4.963 2.487-7.468 2.34-8.949-.524-1.683-3.254-1.168-15.802.619-15.116 5.386 2.067 10.364.327 15.853-5.542 4.91-5.248 7.563-10.999 7.563-16.392 0-3.653-.97-5.802-3.748-8.312-3.492-3.156-6.174-3.719-10.532-2.212-7.973 2.755-17.317 12.047-21.4 21.28-2.176 4.921-3.141 10.127-2.894 15.623.252 5.597 1.291 8.916 3.835 12.248 4.817 6.308 15.347 8.774 22.357 5.233 4.223-2.133 11.517-9.38 16.881-16.774l1.002-1.383.561 2.084c1.885 6.998 7.335 11.786 14.139 12.422 2.376.222 3.357.088 5.133-.698 7.099-3.14 14.718-13.566 26.165-35.803 3.81-7.402 6.983-13.531 7.051-13.619.067-.089 1.064.486 2.215 1.278 1.417.974 2.192 1.89 2.399 2.834.478 2.173-.934 6.199-4.417 12.598-4.734 8.698-5.763 11.797-5.803 17.482-.03 4.201.091 4.898 1.227 7.05 3.65 6.92 12.999 10.243 19.655 6.986 2.95-1.443 8.73-7.24 12.33-12.377 2.48-3.527 2.58-3.535 3.12-.261.54 3.271 2.13 6.237 4.44 8.318 3.54 3.178 8.1 3.996 11.94 2.137 3.59-1.735 6.56-5.541 13.8-17.655 2.8-4.681 4.08-6.084 4.08-4.474 0 2.646 4.14 7.638 7.55 9.105 4.8 2.066 7.87.632 12.89-6.03 4.76-6.316 12.19-19.319 12.19-21.325 0-1.045-1.82-2.943-2.82-2.937-.37.002-2.52 2.933-4.77 6.514-7.37 11.702-12.66 17.959-14.92 17.636-1.8-.258-1.45-1.842 1.81-8.16 2.74-5.312 3.2-6.564 3.36-9.096.15-2.492.01-3.176-.91-4.524-1.39-2.029-3.03-3.218-4.93-3.591-1.32-.259-1.72-.073-3.22 1.51-.94.993-4.07 5.612-6.94 10.266-2.88 4.654-6.99 10.947-9.13 13.985-4.31 6.092-9.76 12.041-10.74 11.719-1.03-.338-.99-3.498.08-7.058 2.48-8.239 9.3-19.645 15.93-26.649 4.73-5.005 9.4-8.115 14.73-9.814 5.93-1.89 6.23-2.29 3.75-5.107-2.86-3.266-5.95-4.21-10.76-3.29-8.13 1.556-16.31 6.101-23.09 12.834-4.36 4.331-6.98 7.847-10.51 14.078-7.65 13.484-18.05 27.188-21.28 28.033-.66.172-1.335-.053-1.914-.632-1.776-1.775-1.033-7.748 2.384-19.126 3.74-12.504 3.37-14.086-5.355-22.562-3.167-3.077-6.115-6.166-6.551-6.866-.77-1.236-.747-1.377.851-5.128 4.294-10.079 4.388-15.827.295-18.244-2.151-1.272-3.533-.966-5.981 1.323zm-61.758 35.925c.733 1.911-3.043 8.038-8.425 13.67-2.868 3.002-6.282 5.659-7.272 5.659-.584 0 3.396-7.74 5.748-11.178 2.753-4.024 7.83-8.859 9.31-8.866.2-.001.488.321.639.715zM578.76 390.427c-4.087.917-7.911 2.343-11.173 4.167-13.303 7.44-23.766 21.753-25.896 35.425-1.259 8.085 1.806 16.261 7.111 18.967 2.373 1.211 6.243 1.626 8.431.904 3.721-1.229 8.036-6.503 15.064-18.414 1.504-2.549 2.971-4.709 3.261-4.799.29-.091.669.422.843 1.138.558 2.304 3.479 6.189 5.725 7.613 2.515 1.595 4.579 2.079 6.962 1.631 3.389-.635 9.116-7.78 15.98-19.934 3.833-6.786 4.357-8.623 2.881-10.099-1.393-1.393-2.511-1.224-3.517.53-3.194 5.577-11.18 16.931-13.771 19.58-3.257 3.328-4.823 3.951-5.396 2.144-.233-.732.542-2.651 2.871-7.109 3.109-5.951 3.191-6.196 3.201-9.603.012-3.986-.671-5.324-3.549-6.961-3.758-2.137-4.69-1.339-11.537 9.877-9.408 15.413-18.731 27.415-20.707 26.657-1.861-.714-.288-7.289 3.693-15.436 4.894-10.016 12.9-19.955 19.63-24.374 2.249-1.476 5.094-2.799 8.091-3.761 5.005-1.607 5.313-1.96 3.765-4.309-1.643-2.491-5.5-4.597-8.233-4.496-.513.019-2.191.317-3.73.662z" fill="#384049"/></g><defs><clipPath id="clip0_2842_10422"><path fill="#fff" d="M0 0h1085.26v482.019H0z"/></clipPath><clipPath id="clip1_2842_10422"><path fill="#fff" d="M0 0h934.221v482.019H0z"/></clipPath></defs></svg>