<svg width="152" height="62" viewBox="0 0 152 62" fill="none" xmlns="http://www.w3.org/2000/svg"><g clip-path="url(#clip0)"><path fill-rule="evenodd" clip-rule="evenodd" d="M38.757 28.18h8.47c1.24 0 2.355.167 3.306.54.95.373 1.735.829 2.355 1.45.495.498.867 1.037 1.115 1.7.29.664.413 1.327.413 2.074v.041c0 .83-.165 1.617-.454 2.28a5.164 5.164 0 01-1.24 1.742c-.537.497-1.157.87-1.859 1.16a9.792 9.792 0 01-2.355.622l6.652 8.666H53.3l-6.445-8.375h-6.611v8.375h-1.487V28.18zm8.305 10.49a8.71 8.71 0 002.355-.332 6.487 6.487 0 001.86-.912c.536-.414.908-.87 1.239-1.45a4.372 4.372 0 00.454-1.95v-.04c0-1.37-.496-2.447-1.529-3.235-.991-.788-2.437-1.202-4.297-1.202h-6.9v9.163h6.818v-.042zM67.06 48.786a9.905 9.905 0 01-4.008-.829 9.709 9.709 0 01-3.182-2.197 9.87 9.87 0 01-2.107-3.317 11.245 11.245 0 01-.743-4.063v-.042c0-1.41.247-2.777.784-4.063a10.052 10.052 0 012.108-3.358 9.628 9.628 0 013.181-2.239 9.958 9.958 0 014.05-.829c.909 0 1.735.083 2.437.249.744.166 1.405.373 2.025.663.62.29 1.198.622 1.777 1.037.537.414 1.074.829 1.611 1.326l-1.074 1.12c-.455-.415-.91-.83-1.405-1.203a11.744 11.744 0 00-1.529-.953 11.194 11.194 0 00-1.777-.622 8.393 8.393 0 00-2.107-.249 8.403 8.403 0 00-3.388.705 8.341 8.341 0 00-2.686 1.907 9.248 9.248 0 00-1.776 2.86c-.413 1.12-.661 2.281-.661 3.566v.042c0 1.285.206 2.446.66 3.565.455 1.12 1.034 2.073 1.819 2.903.743.829 1.652 1.45 2.685 1.948a8.257 8.257 0 003.389.705c1.446 0 2.727-.29 3.8-.83 1.075-.538 2.108-1.326 3.141-2.362l.992.995a18.02 18.02 0 01-1.653 1.45 13.36 13.36 0 01-1.818 1.12c-.661.29-1.322.54-2.107.705-.744.207-1.57.29-2.438.29zm29.377-3.606l-2.81-2.861c-.784.746-1.57 1.326-2.396 1.74-.785.415-1.776.623-2.933.623a5.77 5.77 0 01-2.397-.498 6.01 6.01 0 01-1.86-1.368 6.593 6.593 0 01-1.197-2.032c-.29-.787-.414-1.575-.414-2.446v-.041c0-.87.124-1.7.413-2.446a7.117 7.117 0 011.199-2.032 6.011 6.011 0 011.86-1.368c.701-.331 1.487-.497 2.354-.497 1.033 0 1.942.207 2.769.621.826.415 1.611.954 2.396 1.659l2.81-3.275a15.13 15.13 0 00-1.488-1.286 10.418 10.418 0 00-1.776-.995 7.845 7.845 0 00-2.108-.622 12.496 12.496 0 00-2.561-.248c-1.57 0-2.975.29-4.256.829-1.281.539-2.397 1.285-3.306 2.239a10.41 10.41 0 00-2.148 3.316c-.537 1.244-.785 2.612-.785 4.063v.042c0 1.451.248 2.82.785 4.063a10.664 10.664 0 002.148 3.317c.91.953 2.025 1.658 3.306 2.197 1.28.54 2.644.83 4.132.83.991 0 1.859-.084 2.644-.25a11.303 11.303 0 002.19-.704c.661-.332 1.28-.705 1.818-1.161a9.986 9.986 0 001.611-1.41zm13.263-5.722h-6.61c.165-.995.537-1.824 1.115-2.405.579-.58 1.322-.912 2.231-.912.909 0 1.653.29 2.232.912.537.622.867 1.41 1.032 2.405zm4.256 1.658v-.041c0-1.12-.165-2.156-.454-3.151-.289-.995-.744-1.907-1.405-2.695a6.56 6.56 0 00-2.355-1.866c-.951-.456-2.066-.705-3.347-.705-1.116 0-2.149.208-3.099.622a6.755 6.755 0 00-2.396 1.742c-.661.746-1.199 1.575-1.57 2.57a8.828 8.828 0 00-.579 3.11v.041c0 1.202.207 2.28.62 3.275.413.995.95 1.825 1.694 2.53.702.704 1.57 1.243 2.562 1.658.991.373 2.066.58 3.223.58 1.404 0 2.644-.248 3.677-.788 1.033-.497 1.942-1.202 2.644-2.114l-2.52-2.239c-.62.58-1.198.954-1.777 1.203a4.926 4.926 0 01-1.942.373c-.991 0-1.818-.25-2.479-.788-.661-.498-1.116-1.285-1.322-2.28h10.743c0-.208.041-.415.041-.54.041-.124.041-.29.041-.497z" fill="#fff"/><path d="M121.807 27.31h-4.38v21.145h4.38V27.31z" fill="#fff"/><path fill-rule="evenodd" clip-rule="evenodd" d="M134.615 47.791v-3.524a4.35 4.35 0 01-2.148.54c-.95 0-1.405-.498-1.405-1.494V36.68h3.636v-3.773h-3.636v-3.98h-4.38v3.98h-1.9v3.773h1.859v7.338c0 .913.124 1.659.331 2.24a3.94 3.94 0 00.909 1.45c.413.373.867.622 1.404.747a8.125 8.125 0 001.818.207c.744 0 1.364-.083 1.942-.249a4.783 4.783 0 001.57-.622zm12.437-4.809c0 .829-.33 1.45-.95 1.949-.62.497-1.446.746-2.479.746-.702 0-1.281-.166-1.735-.498-.455-.332-.662-.788-.662-1.41v-.04c0-.706.29-1.245.827-1.576.537-.373 1.281-.54 2.231-.54.537 0 1.033.042 1.529.166.454.125.909.25 1.281.415v.788h-.042zm4.132 5.473v-9.039c0-2.114-.537-3.731-1.653-4.933-1.115-1.161-2.85-1.783-5.247-1.783-1.322 0-2.438.124-3.347.331-.909.25-1.818.54-2.644.913l1.115 3.358a11.14 11.14 0 012.025-.622 12.023 12.023 0 012.231-.207c1.116 0 1.942.248 2.479.705.538.497.827 1.202.827 2.114v.249c-.579-.208-1.116-.332-1.736-.456-.578-.125-1.281-.166-2.066-.166-.909 0-1.776.083-2.52.29-.744.207-1.405.497-1.942.912-.537.415-.992.912-1.281 1.534-.289.622-.454 1.368-.454 2.197v.042c0 .788.124 1.451.413 2.032.289.58.661 1.077 1.157 1.492a4.78 4.78 0 001.694.912c.661.207 1.322.29 2.066.29 1.074 0 1.983-.165 2.727-.539.743-.373 1.405-.829 1.942-1.45v1.658h4.214v.166z" fill="#fff"/><path d="M17.85 12.8h-1.405c0-2.488-.083-5.598-.579-5.805-.578-.249-1.198.083-.785.953.496.954.207 1.617-.743 1.7-.785.083-1.818-.083-2.356-1.907-.62-2.156.827-2.695 3.223-4.934C17.271.9 17.85.03 17.85.03s.578.87 2.685 2.819c2.397 2.197 3.843 2.736 3.223 4.934-.537 1.824-1.57 1.948-2.355 1.907-.95-.083-1.198-.747-.744-1.7.455-.87-.165-1.202-.785-.954-.496.208-.578 3.317-.578 5.805H17.85v-.042zm0 49.17l-4.587-26.45a4.068 4.068 0 003.016-3.732h3.14c.083 1.783 1.323 3.317 3.017 3.731L17.85 61.97zM1.942 20.552c-.33-.29-.537-.663-.785-.912-.33-.332-.702-.58-1.157-.58.455 0 .826-.25 1.116-.58.248-.25.454-.664.785-.913.206-.166.495-.29.785-.29.496 0 .909.29 1.115.746.248 0 .992 0 1.446-.041.538-.042.91-.042.29-.498l-.29-.207a2.112 2.112 0 01-.909-1.078c-.04-.042-.04-.124-.082-.207-.042-.083-.042-.166-.083-.29-.041-.125-.041-.29-.041-.457 0-1.243.95-2.238 2.19-2.321h.454c.042 0 .124.041.165.041.248.042.455.166.703.29l.083.042c1.156.746 1.694 2.156 1.694 2.156s-.29-.166-1.488-.373c-.909-.125-1.446.29-1.322 1.119.207 1.285 1.942 1.617 1.942 1.617h3.016v2.446H8.553s-1.735.332-1.942 1.617c-.124.87.413 1.285 1.322 1.078 1.198-.249 1.488-.373 1.488-.373s-.538 1.45-1.694 2.156l-.083.041a1.946 1.946 0 01-.703.29c-.04 0-.123.042-.165.042a.843.843 0 01-.454 0c-1.24-.042-2.19-1.078-2.19-2.28 0-.166 0-.29.041-.457a.77.77 0 01.083-.29c.041-.083.041-.124.082-.207.207-.456.496-.83.91-1.078l.289-.207c.62-.456.206-.456-.29-.498-.413-.041-1.198-.041-1.446-.041-.165.456-.62.746-1.115.746-.29.041-.537-.083-.744-.249zm31.691 0c.33-.29.537-.663.785-.912.29-.332.661-.58 1.116-.58-.455 0-.826-.25-1.116-.58-.248-.25-.454-.664-.785-.913a1.302 1.302 0 00-.785-.29c-.496 0-.909.29-1.115.746-.248 0-1.033 0-1.447-.041-.537-.042-.909-.042-.289-.498l.29-.207c.413-.249.743-.622.909-1.078.04-.042.04-.124.082-.207.041-.083.041-.166.083-.29.041-.166.041-.29.041-.457 0-1.243-.95-2.238-2.19-2.321h-.454c-.042 0-.124.041-.166.041-.247.042-.454.166-.702.29l-.083.042c-1.157.746-1.694 2.156-1.694 2.156s.29-.166 1.488-.373c.909-.125 1.446.29 1.322 1.119-.207 1.285-1.942 1.617-1.942 1.617h-3.016v2.446h3.016s1.735.332 1.942 1.617c.124.87-.413 1.285-1.322 1.078-1.198-.249-1.488-.373-1.488-.373s.537 1.45 1.694 2.156l.083.041c.248.166.496.249.702.29.042 0 .124.042.166.042a.85.85 0 00.454 0c1.198-.083 2.19-1.078 2.19-2.322 0-.166 0-.29-.041-.456a.77.77 0 00-.083-.29c-.041-.083-.041-.125-.082-.208-.207-.456-.496-.829-.91-1.078l-.289-.207c-.62-.456-.206-.456.29-.497.413-.042 1.198-.042 1.446-.042.165.456.62.746 1.115.746.29.083.537-.04.785-.207z" fill="#D50032"/><path d="M22.23 30.254c-1.199 1.45-2.686 2.363-4.256 3.192l-.207.125-.207-.083c-1.57-.83-3.099-1.783-4.297-3.193-2.85-3.44-4.297-8.499-4.256-12.977h17.478c.124 4.395-1.446 9.577-4.256 12.936z" fill="#fff"/><path d="M26.072 16.24c.372 4.56-1.198 10.2-4.132 13.765-1.157 1.368-2.603 2.28-4.132 3.11-1.529-.83-3.016-1.742-4.173-3.11-2.975-3.607-4.421-9.121-4.132-13.765h16.569z" fill="#6CACE4"/><path d="M22.353 14.955c-2.396-.954-2.727-1.16-4.545-1.16-2.19 0-2.396.207-4.545 1.16a2.897 2.897 0 01-.66-.58c0-.166.04-.373.164-.58.33-.664 1.199-1.245 1.86-1.286.785-.622 2.066-.954 2.975-.788.082 0 .165.042.206.042.083 0 .124-.042.207-.042.909-.166 2.19.166 2.975.788.702.041 1.529.622 1.86 1.285.123.207.164.415.164.58a2.897 2.897 0 01-.66.581z" fill="#C09A4E"/><path d="M17.808 10.146c2.314-1.037 3.471-.208 3.678.995 2.85-.705 2.603 3.565.867 4.229l-.248.497c-1.446-.29-2.479-.414-4.297-.414-1.322 0-3.264.083-4.42.248l-.125-.331c-1.777-.622-2.024-4.934.827-4.23.248-1.202 1.363-2.03 3.718-.994zm-4.38 4.146c1.157.041 1.075-.746.95-1.368-.082-.457-.33-.622-.33-1.327-.743-.622-1.57.539-1.652 1.327-.083 1.368.95 1.368 1.032 1.368zm4.008-3.897c-3.842-1.7-3.057 3.897-.33 2.57.165-.083.165-.249.124-.415-.124-.621-.041-1.492.206-2.155zm.703 0c.248.622.33 1.492.206 2.155-.04.166-.04.332.124.415 2.727 1.368 3.512-4.27-.33-2.57zm4.008 3.897c.082 0 1.157 0 1.033-1.41-.083-.788-.91-1.907-1.653-1.327 0 .705-.248.871-.33 1.327-.125.664-.207 1.451.95 1.41z" fill="#C09A4E"/><path d="M22.436 15.536l-.661 1.077.041.042v.041c0 .042 0 .042-.041.083 0 .042-.041.042-.083.042h-.041c-.041 0-.083 0-.083-.042-.206-.124-.454-.207-.66-.29-.332-.124-.62-.207-.869-.29-.33-.083-.62-.166-.909-.207-.33-.042-.62-.083-.867-.083h-.909c-.248 0-.579.041-.868.083-.29.041-.578.083-.909.207-.29.083-.578.166-.868.29-.206.083-.454.166-.66.29-.042.042-.083.042-.083.042-.042 0-.042 0-.083-.042a.126.126 0 010-.166l-.661-1.077c2.438-1.7 6.735-1.7 9.214 0zm-5-6.966v-.04h.703l-.124.414.33-.124v.705l-.33-.124.124.538h-.703l.124-.538-.33.124V8.82l.33.124-.124-.373z" fill="#C09A4E"/><path d="M19.09 13.338a.317.317 0 01-.084-.207c0-.083.042-.166.083-.207l.083-.083c.041 0 .041-.042.082-.042h.166c.041 0 .041 0 .082.042.042.041.083.041.083.083a.317.317 0 01.083.207v.083c0 .083-.042.124-.083.207l-.083.083c-.041 0-.041.042-.082.042h-.042c.042.414.62.787 1.075.539.082-.042.206-.125.289-.208-.041-.041-.041-.083-.083-.124h-.082l-.042-.042c-.041 0-.082.042-.082.042h-.042c-.041 0-.041.041-.082.041-.042 0-.042.042-.083.042 0 0-.041 0-.041.041 0 0-.042.042-.083.042 0 0-.041 0-.041.041h-.042c-.082 0-.123-.083-.082-.166.041-.041.041-.083.082-.124l.042-.042v-.041c0-.041 0-.041-.042-.083-.04-.124 0-.207.042-.249 0-.041.041-.041.041-.083.041-.041.041-.041.041-.083.042-.041.083-.041.083-.082.041 0 .041-.042.041-.042 0-.124.042-.166.042-.207h.124c.04 0 .082.083.082.166v.041c0 .083 0 .124.042.207 0 .042.04.042.04.083.042.042.042.083.084.125a.227.227 0 01.206-.125v.042a.727.727 0 01-.165-.208c-.041-.082-.041-.082-.083-.207 0 0-.041-.083-.082-.124 0-.042 0-.083.04-.125.042 0 .084-.041.166.042l.083.083c.041.041.082 0 .124 0 .041 0 .082-.042.124-.042h.082s.083 0 .124.083c.042.042.042.083.042.125 0 .041.041.083.082.083h.124c.083.041.165.041.165.082 0 .042-.04.083-.082.125h-.124c-.083 0-.124.041-.207.083a.585.585 0 01-.248.083h-.04a.228.228 0 01.123.207c.083 0 .124-.041.207-.083.082-.041.124-.124.206-.166.041 0 .083-.041.124-.041.083 0 .124.083.083.166l-.083.083c-.041.04 0 .124 0 .165a.275.275 0 01-.082.29c-.083.125-.207.125-.166.208.042.166-.041.249-.082.249-.042 0-.166 0-.166-.208 0-.083 0-.207-.041-.29-.041-.083-.083-.083-.083-.207-.04.041-.082.041-.165.041 0 .54.455.788.868.705.124 0 .206-.041.33-.124-.041-.042-.041-.083-.041-.125 0-.124.124-.248.248-.248s.248.124.248.248c0 .125-.124.25-.248.25h-.083c-.041.455.33.828.785.538-.04-.041-.04-.083-.04-.124-.084.041-.29.083-.332.083-.082 0-.082-.042-.082-.083 0-.042.041-.083.082-.083.042-.042 0-.125.042-.208.041-.082.041-.082.124-.082.082-.042.082 0 .082-.042.042 0 .042-.083.042-.083l.041-.041h.083c.041.041.041.083.041.124v.249c.041 0 .041-.042.083-.042h.041c0-.041.041-.165.041-.248v-.125c.042-.041.083 0 .124 0 .042.042.124.166.166.166h.123c.083.041.207.166.207.207 0 .083 0 .042-.041.083-.042.042-.207 0-.33 0-.042 0-.083.042-.125.042l-.124.124-.082.083h-.042a.941.941 0 01-.496.249h-.082c-.083 0-.165-.042-.29-.083-.289-.125-.206-.54-.206-.622-.083.083-.165.083-.29.124a1.06 1.06 0 01-.619-.041c-.33-.124-.413-.58-.413-.746 0 .041-.124.165-.29.207-.165.083-.413.166-.62.083-.33-.083-.454-.332-.619-.54-.041.042-.041.084-.083.125-.165.125-.413.249-.66.249-.372-.041-.62-.373-.662-.497-.082.082-.33.456-.66.497-.249.042-.497-.124-.662-.249l-.083-.083c-.165.208-.247.456-.62.54-.206.082-.454 0-.62-.084-.164-.082-.288-.165-.288-.207 0 .124-.083.58-.414.746a1.078 1.078 0 01-.62.042 2.013 2.013 0 01-.289-.125c0 .083.042.498-.206.622-.124.083-.207.125-.29.125h-.082c-.207 0-.372-.125-.496-.25h-.041l-.083-.082c-.082-.041-.124-.083-.124-.083-.041-.041-.082-.041-.124-.041-.124-.042-.289 0-.33 0-.042-.042-.042 0-.042-.083s.124-.208.207-.208c.083-.041.041 0 .124 0 .083 0 .124-.124.165-.165.042-.042.083-.042.124 0 .042.041 0 0 0 .124 0 .083 0 .207.042.249h.04c.042 0 .084 0 .084.041v-.249c0-.041 0-.082.04-.124.042-.041.083 0 .083 0s.042 0 .042.041c0 .042.041.083.041.083.041.042.041 0 .083.042.082.041.082.041.124.083.041.083 0 .166.041.207l.083.083c0 .041 0 .083-.083.083-.041 0-.248-.083-.33-.083 0 .041 0 .083-.042.124.455.29.826-.041.785-.539h-.082a.267.267 0 01-.248-.248c0-.125.124-.25.248-.25.123 0 .247.125.247.25 0 .041 0 .124-.04.124.082.041.206.083.33.124.413.083.867-.165.867-.704-.082 0-.124-.042-.165-.083 0 .124-.041.124-.083.207-.04.083-.04.207-.04.29 0 .207-.125.207-.166.207-.042 0-.124-.082-.083-.248 0-.083-.082-.083-.165-.207-.041-.042-.083-.125-.083-.29 0-.042.042-.084 0-.167l-.082-.082c-.042-.083 0-.166.082-.166.042 0 .124 0 .124.041.083.042.124.083.207.166.082.041.124.083.165.083 0-.083.041-.166.124-.207h-.041c-.124.041-.207-.042-.29-.083-.082-.042-.082-.083-.165-.083h-.124c-.041-.042-.082-.083-.041-.125 0-.041.083-.083.165-.083h.124c.083 0 .083-.082.083-.082 0-.042 0-.083.041-.125a.596.596 0 01.124-.083h.083c.041 0 .082 0 .124.042.041 0 .082.041.124 0l.082-.083c.083-.042.124-.042.166-.042.04 0 .04.083.04.125 0 .041-.082.083-.082.124-.041.083-.041.124-.082.207a.739.739 0 01-.166.208l-.041.041c.083 0 .165.042.207.125a.888.888 0 01.124-.208c.04-.083.04-.166.04-.249 0-.207.125-.207.166-.165.041.041.083.041.083.207 0 .083.124.041.206.166.042.041.124.124.083.331 0 .042-.041.125 0 .166.041.042.041.083.083.125.041.082-.042.165-.124.165-.042 0-.083-.041-.124-.082-.124-.083-.124-.083-.207-.125l-.165-.083c-.041 0-.041 0-.083-.041 0 .041-.041.083-.082.124a.479.479 0 00.289.207c.496.25 1.033-.124 1.074-.538-.165-.042-.29-.166-.29-.332s.125-.332.331-.332c.166 0 .331.166.331.332a.312.312 0 01-.207.29c.042.042.042.083.083.124.124.208.372.332.744.25.372-.042.496-.374.537-.498-.124-.042-.207-.083-.248-.208a.315.315 0 01-.083.166c-.04.042-.124.166-.124.208-.04.082-.082.124-.082.165-.041.042-.083.042-.083.042-.041 0-.082-.083-.082-.125 0-.082 0-.207-.042-.207-.041-.083-.165-.124-.165-.29 0-.207.124-.207.124-.29 0-.042-.041-.208-.041-.25 0-.082.04-.123.082-.123.083 0 .166.041.166.082.04.083.082.083.123.125.083.083.124.083.166.166.041.041.041.041.041.083a.373.373 0 01.248-.25h-.041c-.124-.04-.207-.082-.248-.165-.083-.083-.083-.124-.166-.124-.082-.042-.082-.042-.123-.083-.042-.042-.042-.083 0-.125.04-.041.082-.083.206-.041.083 0 .083 0 .124.041.083.042.083 0 .124 0 .041-.041.083-.124.124-.124.083-.042.124-.042.124-.042s.041 0 .124.042c.082.041.082.124.124.124.041.042.041.042.124 0 .082-.041.082-.041.124-.041.082 0 .165 0 .206.041.042.042.042.083 0 .125-.041.041-.041.041-.124.083-.082.041-.082.082-.165.124-.083.083-.124.124-.248.166h-.041a.373.373 0 01.248.249c0-.042.041-.083.041-.083s0-.042.041-.042l.083-.083.041-.041s.042 0 .042-.042c.041-.041.082-.083.082-.124l.083-.083c.041 0 .041-.041.083-.041.04 0 .082.082.082.124 0 .083-.041.207-.041.249l.041.041c.041.042.083.083.083.208v.041a.317.317 0 01-.083.207c-.041.042-.082.042-.082.083 0 .083-.042.166-.042.208 0 .04-.041.082-.082.124h-.083s-.041 0-.041-.042c0 0-.042-.041-.042-.082 0-.042-.041-.042-.041-.083 0-.042-.041-.042-.041-.083-.042-.042-.083-.083-.083-.125-.041-.083-.083-.124-.083-.207a.424.424 0 01-.247.207c.04.125.165.456.537.498a.864.864 0 00.743-.249c.042-.041.042-.083.083-.124h-.041c-.166 0-.166-.042-.207-.042z" fill="#fff"/><path d="M14.007 12.509c0-.207.165-.415.413-.415.207 0 .413.208.413.415a.415.415 0 01-.413.415.415.415 0 01-.413-.415zm.165-2.239c0-.207.165-.373.413-.373.207 0 .372.166.372.373s-.165.415-.372.415a.415.415 0 01-.413-.415z" fill="#fff"/><path d="M14.833 9.856c0-.166.124-.29.29-.29.165 0 .289.124.289.29 0 .165-.124.29-.29.29a.283.283 0 01-.289-.29z" fill="#fff"/><path d="M15.412 9.69c0-.166.124-.29.289-.29.165 0 .29.124.29.29 0 .166-.125.29-.29.29a.283.283 0 01-.29-.29z" fill="#fff"/><path d="M15.99 9.648c0-.124.124-.248.248-.248s.248.124.248.248c0 .125-.124.25-.248.25s-.248-.084-.248-.25zm.496.042c0-.125.124-.249.248-.249s.248.124.248.249c0 .124-.124.249-.248.249-.165 0-.248-.083-.248-.25z" fill="#fff"/><path d="M16.94 9.814c0-.083.083-.166.166-.166.082 0 .165.083.165.166s-.082.207-.165.207-.165-.082-.165-.207zm.331.166c0-.083.083-.166.165-.166.083 0 .166.083.166.166s-.083.166-.166.166c-.082 0-.165-.083-.165-.166z" fill="#fff"/><path d="M17.56 10.146c0-.125.124-.249.248-.249s.248.124.248.249c0 .124-.082.249-.248.249-.124-.042-.248-.125-.248-.25z" fill="#fff"/><path d="M17.519 10.643c0-.166.124-.29.29-.29.165 0 .288.124.288.29 0 .166-.123.29-.289.29a.283.283 0 01-.289-.29z" fill="#fff"/><path d="M17.478 11.265c0-.207.165-.332.33-.332.207 0 .33.166.33.332a.326.326 0 01-.33.332c-.206 0-.33-.124-.33-.332z" fill="#fff"/><path d="M17.354 12.053a.46.46 0 01.454-.456.46.46 0 01.455.456.46.46 0 01-.455.456c-.248-.041-.454-.207-.454-.456zm-5.372 2.363a.37.37 0 11.744 0 .37.37 0 11-.744 0z" fill="#fff"/><path d="M11.61 13.753c0-.207.207-.415.414-.415.206 0 .413.166.413.415 0 .207-.207.414-.413.414-.248 0-.413-.165-.413-.414z" fill="#fff"/><path d="M11.486 13.048a.37.37 0 11.744 0 .37.37 0 01-.372.373c-.206 0-.372-.207-.372-.373zm.124-.746c0-.208.166-.332.331-.332.207 0 .33.166.33.332a.326.326 0 01-.33.331c-.165.042-.33-.124-.33-.331z" fill="#fff"/><path d="M11.941 11.763c0-.166.124-.332.33-.332.166 0 .331.125.331.332a.326.326 0 01-.33.331c-.207-.041-.331-.165-.331-.331z" fill="#fff"/><path d="M12.354 11.348c0-.166.124-.29.29-.29.165 0 .289.124.289.29 0 .166-.124.29-.29.29-.165-.041-.289-.165-.289-.29z" fill="#fff"/><path d="M12.85 11.1c0-.125.124-.25.248-.25s.248.125.248.25c0 .124-.124.248-.248.248s-.248-.124-.248-.249zm.496-.083c0-.125.082-.208.206-.208.124 0 .207.083.207.208 0 .124-.083.207-.207.207-.123 0-.206-.083-.206-.207zm7.437 1.492c0-.207.165-.415.413-.415.207 0 .413.208.413.415a.415.415 0 01-.413.415c-.206 0-.413-.208-.413-.415zm-.165-2.239c0-.207.165-.373.413-.373.207 0 .372.166.372.373s-.165.415-.372.415c-.206 0-.413-.208-.413-.415z" fill="#fff"/><path d="M20.163 9.856c0-.166.124-.29.29-.29.165 0 .289.124.289.29 0 .165-.124.29-.29.29-.123 0-.289-.125-.289-.29z" fill="#fff"/><path d="M19.626 9.69c0-.166.124-.29.29-.29.165 0 .289.124.289.29 0 .166-.124.29-.29.29a.283.283 0 01-.289-.29z" fill="#fff"/><path d="M19.13 9.648c0-.124.124-.248.248-.248s.248.124.248.248c0 .125-.124.25-.248.25s-.247-.084-.247-.25z" fill="#fff"/><path d="M18.676 9.69c0-.125.083-.249.248-.249.124 0 .248.124.248.249 0 .124-.124.249-.248.249-.165 0-.248-.083-.248-.25zm-.372.124c0-.083.083-.166.207-.166.082 0 .165.083.165.166s-.083.207-.165.207c-.124 0-.207-.082-.207-.207z" fill="#fff"/><path d="M18.015 9.98c0-.083.082-.166.165-.166s.165.083.165.166-.082.166-.165.166c-.082 0-.165-.083-.165-.166zm5.165 3.773c0-.207.165-.415.413-.415a.415.415 0 010 .83c-.248 0-.413-.166-.413-.415z" fill="#fff"/><path d="M23.386 13.048a.37.37 0 01.372-.373.37.37 0 01.372.373.37.37 0 01-.372.373c-.206-.041-.372-.207-.372-.373zm-.082-.746c0-.166.165-.332.33-.332.207 0 .33.166.33.332a.326.326 0 01-.33.331c-.165.042-.33-.124-.33-.331z" fill="#fff"/><path d="M23.056 11.763c0-.166.124-.29.289-.29.165 0 .29.124.29.29 0 .166-.125.29-.29.29-.124 0-.29-.124-.29-.29z" fill="#fff"/><path d="M22.684 11.348c0-.166.124-.29.29-.29.164 0 .288.124.288.29 0 .166-.124.29-.289.29-.165-.041-.29-.165-.29-.29z" fill="#fff"/><path d="M22.27 11.1c0-.125.083-.25.248-.25.124 0 .248.125.248.25 0 .124-.123.248-.247.248-.166 0-.248-.124-.248-.249zm-.454-.083c0-.125.083-.208.207-.208.124 0 .206.083.206.208 0 .124-.082.207-.206.207-.083 0-.207-.083-.207-.207zm-8.056-.083c0-.208.206-.415.412-.415a.415.415 0 010 .83c-.206-.042-.413-.208-.413-.415z" fill="#fff"/><path d="M13.76 10.934c0-.208.206-.415.412-.415a.415.415 0 010 .83c-.206-.042-.413-.208-.413-.415z" fill="#fff"/><path d="M13.594 11.763a.46.46 0 01.454-.456.46.46 0 01.455.456.46.46 0 01-.455.456.46.46 0 01-.454-.456zm7.437-.829c0-.208.165-.415.372-.415s.413.166.413.415c0 .207-.165.373-.413.373-.248 0-.372-.166-.372-.373zm.041.829a.46.46 0 01.455-.456.46.46 0 01.454.456.46.46 0 01-.454.456.46.46 0 01-.455-.456zm-3.305 3.814l-.95-.58.95-.58.95.58c-.33.165-.62.373-.95.58z" fill="#fff"/><path d="M17.767 14.54c.248.125.454.29.702.415l-.702.415-.661-.415.66-.415zm3.14.747l-1.446-.498-.248.747 1.488.497.206-.746z" fill="#fff"/><path d="M20.783 15.37l-1.28-.415-.125.456 1.24.456.165-.497zm1.529.373v.456l-.413.207-.372-.622.785-.041z" fill="#fff"/><path d="M22.395 15.784h-.827l.413.622c.042.083-.04.125-.082.125l-.413-.83s.082 0 .95-.083c0 0 0 .166-.041.166zm-7.768-.497l1.487-.498.207.747-1.446.497-.248-.746z" fill="#fff"/><path d="M14.792 15.37l1.24-.415.165.456-1.281.456-.124-.497zm-1.487.373l.04.456.414.207.33-.622-.784-.041z" fill="#fff"/><path d="M13.263 15.784h.827l-.414.622c-.04.083.042.125.083.125l.413-.83s-.082 0-.95-.083c-.041 0-.041.166.041.166zm9.627-1.368a.371.371 0 11.744 0 .37.37 0 01-.372.373.37.37 0 01-.372-.373zm-10.536 4.768c.372 4.685 2.19 8.458 5.909 11.401-.33.332-.62.622-.785.747-3.967-3.234-6.198-8.126-6.24-13.226H23.8v1.078H12.354z" fill="#fff"/><path d="M23.84 20.47h-9.874c.66 4.27 2.066 6.674 5.33 9.079.206-.249.495-.498.702-.705-2.975-2.114-4.256-4.478-4.71-7.297h8.553V20.47z" fill="#fff"/></g><defs><clipPath id="clip0"><path d="M0 .03h151.184v61.94H0V.03z" fill="#fff"/></clipPath></defs></svg>